<svg width="46" height="46" viewBox="0 0 46 46" fill="none" xmlns="http://www.w3.org/2000/svg">
<rect x="23.0005" y="0.37265" width="32" height="32" rx="4" transform="rotate(45 23.0005 0.37265)" fill="black"/>
<path d="M17.6246 22.4619L19.2635 21.5243V17.1319C19.2635 16.5438 19.0249 16.0099 18.6393 15.6243C18.2537 15.2387 17.721 15.0001 17.1318 15.0001C15.9544 15.0001 15 15.9545 15 17.1319V29.6802C15 30.8576 15.9544 31.812 17.1318 31.812C18.3091 31.812 19.2635 30.8576 19.2635 29.6802V25.2877L17.6246 24.3502C16.945 23.9622 16.945 22.8511 17.6246 22.4619Z" fill="white"/>
<path d="M28.1363 23.9827C27.9375 23.6332 27.9375 23.1813 28.1363 22.8318L31.6575 16.6378C32.1709 15.7352 31.3129 14.6362 30.4706 15.117L19.2646 21.5243V25.2877L30.4706 31.6951C31.3129 32.1759 32.1709 31.0781 31.6575 30.1755L28.1363 23.9827Z" fill="white"/>
</svg>
