<svg width="56" height="56" viewBox="0 0 56 56" fill="none" xmlns="http://www.w3.org/2000/svg">
<path d="M14.5637 18.4324L18.3717 16.254V6.04797C18.3717 4.68157 17.8173 3.44117 16.9213 2.54517C16.0253 1.64917 14.7877 1.09477 13.4185 1.09477C10.6829 1.09477 8.46533 3.31237 8.46533 6.04797V35.2044C8.46533 37.94 10.6829 40.1576 13.4185 40.1576C16.1541 40.1576 18.3717 37.94 18.3717 35.2044V24.9984L14.5637 22.82C12.9845 21.9184 12.9845 19.3368 14.5637 18.4324Z" fill="white"/>
<path d="M38.9886 21.966C38.5266 21.154 38.5266 20.104 38.9886 19.292L47.1702 4.89997C48.363 2.80277 46.3694 0.249172 44.4122 1.36637L18.375 16.254V24.9984L44.4122 39.886C46.3694 41.0032 48.363 38.4524 47.1702 36.3552L38.9886 21.966Z" fill="white"/>
<path d="M15.7469 45.416C15.7469 46.6284 15.1813 47.6644 14.2769 48.3252C15.1813 48.9888 15.7469 50.0556 15.7469 51.2344V51.9624H14.3077V51.2344C14.3077 50.022 13.3389 49.0532 12.1265 49.0532C10.8973 49.0532 9.92846 50.022 9.92846 51.2344V51.9624H8.48926V51.2344V41.7928H9.92846V48.356C10.5585 47.8884 11.3033 47.6112 12.1265 47.6112C13.3389 47.6112 14.3077 46.6424 14.3077 45.4132V44.702H15.7469V45.416Z" fill="white"/>
<path d="M21.9201 49.4087L22.9393 50.4279L22.4381 50.9291C21.7437 51.6235 20.8365 51.9959 19.8677 51.9959C18.8989 51.9959 17.9917 51.6235 17.2973 50.9291C15.8749 49.5067 15.8917 47.2107 17.2973 45.8051C18.7197 44.3827 21.0157 44.3827 22.4381 45.8051L22.9393 46.3063L18.9129 50.3327C19.7361 50.7359 20.7245 50.6071 21.4189 49.9127L21.9201 49.4087ZM17.6697 48.3559C17.6697 48.6947 17.7509 49.0027 17.8965 49.3107C18.4145 48.7927 20.2233 46.9979 20.8225 46.4015C19.9993 45.9983 19.0109 46.1103 18.3165 46.8047C17.8797 47.2415 17.6697 47.7595 17.6697 48.3559Z" fill="white"/>
<path d="M29.1145 49.4087L30.1337 50.4279L29.6325 50.9291C28.9381 51.6235 28.0309 51.9959 27.0621 51.9959C26.0933 51.9959 25.1861 51.6235 24.4917 50.9291C23.0693 49.5067 23.0861 47.2107 24.4917 45.8051C25.9141 44.3827 28.2101 44.3827 29.6325 45.8051L30.1337 46.3063L26.1073 50.3327C26.9305 50.7359 27.9189 50.6071 28.6133 49.9127L29.1145 49.4087ZM24.8641 48.3559C24.8641 48.6947 24.9453 49.0027 25.0909 49.3107C25.6089 48.7927 27.4177 46.9979 28.0169 46.4015C27.1937 45.9983 26.2053 46.1103 25.5109 46.8047C25.0741 47.2415 24.8641 47.7595 24.8641 48.3559Z" fill="white"/>
<path d="M37.8953 48.3559C37.8953 50.3607 36.2629 51.9931 34.2581 51.9931H32.0769V54.9023H30.6377V48.3559C30.6377 46.3511 32.2533 44.7355 34.2581 44.7355C36.2601 44.7355 37.8953 46.3511 37.8953 48.3559ZM34.2553 50.5567C35.4845 50.5567 36.4533 49.5879 36.4533 48.3587C36.4533 47.1463 35.4845 46.1775 34.2553 46.1775C33.0429 46.1775 32.0741 47.1463 32.0741 48.3587V50.5567H34.2553Z" fill="white"/>
<path d="M44.8925 44.7048V46.144H40.5105C40.1073 46.144 39.7825 46.466 39.7825 46.872C39.7825 47.2752 40.1045 47.6168 40.5105 47.6168H43.4197C44.6321 47.6168 45.6009 48.5716 45.6009 49.784C45.6009 50.9964 44.6321 51.9652 43.4197 51.9652H39.0545V50.526H43.4197C43.8565 50.526 44.1645 50.218 44.1645 49.7812C44.1645 49.378 43.8565 49.0532 43.4197 49.0532H40.5105C39.2981 49.0532 38.3433 48.0844 38.3433 46.872C38.3433 45.6596 39.2981 44.7048 40.5105 44.7048H44.8925Z" fill="white"/>
<path d="M46.0732 41.7927H47.5124V51.9623H46.0732V41.7927Z" fill="white"/>
</svg>
